<?xml version="1.0" encoding="UTF-8"?>
<svg id="Camada_1" data-name="Camada 1" xmlns="http://www.w3.org/2000/svg" viewBox="0 0 96.75 96.75">
  <defs>
    <style>
      .cls-1 {
        fill: #00234c;
        stroke-width: 0px;
      }
    </style>
  </defs>
  <path class="cls-1" d="m17.57,52.32H.16c.77,10.32,4.62,19.76,10.64,27.34.09-.08.19-.15.28-.23,3.3-2.63,6.94-4.91,10.88-6.8-2.36-6.14-3.96-12.99-4.38-20.31Z"/>
  <path class="cls-1" d="m20.85,26.72c-4.16-2.09-7.99-4.63-11.4-7.54-.05-.04-.1-.09-.15-.13C3.52,27.09.09,36.98,0,47.69c0,.13,0,.25,0,.38,0,.08,0,.15,0,.23,0-.2.01-.41.02-.61h17.44c.09-7.53,1.33-14.61,3.38-20.97Z"/>
  <path class="cls-1" d="m77.63,52.32c-.4,6.9-1.85,13.4-4,19.26,4.53,1.94,8.71,4.41,12.46,7.3.09.07.19.14.29.22,5.77-7.48,9.46-16.71,10.21-26.78h-18.96Z"/>
  <path class="cls-1" d="m73.12,23.25c4.29-1.89,8.26-4.27,11.84-7.05.06-.04.11-.09.17-.13C77.68,7.2,67.19,1.06,55.29-.67c.18.11.35.23.53.34,6.72,4.47,13.16,12.82,17.3,23.58Z"/>
  <path class="cls-1" d="m22.49,22.19C26.52,12.23,32.52,4.45,38.82.05c.18-.13.36-.25.54-.37C28.57,1.76,19.04,7.47,12.07,15.54c.06.05.11.09.17.13,3.12,2.51,6.55,4.7,10.25,6.52Z"/>
  <path class="cls-1" d="m71.83,76.02c-4.01,8.95-9.55,16.1-15.06,20.54-.37.3-.74.58-1.11.86,10.9-1.68,20.6-7.09,27.84-14.91-.11-.08-.23-.16-.34-.24-3.46-2.47-7.26-4.57-11.33-6.25Z"/>
  <path class="cls-1" d="m23.81,77c-3.49,1.61-6.76,3.54-9.77,5.75-.11.08-.22.16-.33.25,6.72,7.07,15.49,12.09,25.33,14.05-.37-.29-.74-.59-1.11-.9-5.14-4.3-10.28-10.93-14.12-19.15Z"/>
  <path class="cls-1" d="m96.74,47.69c-.08-10.52-3.4-20.26-9-28.23-.05.04-.1.09-.15.13-3.84,3.21-8.19,5.94-12.93,8.1,1.87,6.1,3,12.84,3.08,20h18.99c0,.2.01.41.02.61,0-.08,0-.15,0-.23,0-.13,0-.25,0-.38Z"/>
  <path class="cls-1" d="m26.88,24.13s.07.03.1.04c5.76,2.25,12.03,3.65,18.62,4V1.04c-1.37.75-2.82,1.72-4.28,2.89-5.93,4.39-11.13,10.96-14.44,20.2Z"/>
  <path class="cls-1" d="m28.35,75.13c4.64,10.71,11.52,17.69,17.24,20.36v-23.85c-6,.32-11.73,1.51-17.06,3.43-.06.02-.12.04-.18.06Z"/>
  <path class="cls-1" d="m50.58,66.62c6.63.17,12.98,1.34,18.85,3.35.09.03.17.06.26.09,1.73-5.22,2.92-11.15,3.27-17.75h-22.44v14.3s.04,0,.06,0h0Z"/>
  <path class="cls-1" d="m50.58,47.69h22.49c0,.12,0,.25,0,.37,0-.04,0-.08,0-.13,0-.08,0-.16,0-.25-.02-6.76-.97-12.87-2.53-18.3-.01,0-.03,0-.04.01-6.16,2.27-12.88,3.59-19.93,3.78h0s-.04,0-.06,0v14.5h.06Z"/>
  <path class="cls-1" d="m67.99,74.58c-.14-.05-.29-.09-.43-.13-5.33-1.72-11.03-2.71-16.98-2.87h0v23.76h0s0,0,0,0c0,0,0,0,0,0,5.79-2.71,12.77-9.83,17.4-20.76Z"/>
  <path class="cls-1" d="m69.03,24.86s.01,0,.02,0c-.32-.85-.65-1.67-1-2.47-4.17-9.96-10.53-17.53-17.47-21.34,0,0,0,0,0,0h0s0,0,0,0v27.2h0c6.49-.17,12.7-1.35,18.45-3.37Z"/>
  <path class="cls-1" d="m22.71,52.32c.42,7.02,1.82,13.08,3.87,18.33.02,0,.03-.01.05-.02,5.87-2.23,12.26-3.6,18.97-3.95v-14.36h-22.88Z"/>
  <path class="cls-1" d="m25.36,28.75c-1.71,5.59-2.75,11.92-2.78,18.94h23.01v-14.54c-7.16-.35-13.96-1.88-20.16-4.36-.02,0-.05-.02-.07-.03Z"/>
</svg>